# xmcd
#
# Track frame offsets: 
#        150
#        1782
#        29263
#        37665
#        40002
#        54005
#        65092
#        88875
#        91130
#        116706
#        149182
#        174487
#        196195
#        208564
#        223982
#        241444
#        263337
#        276306
#        298709
#
# Disc length: 4404 seconds
#
# Revision: 1
# Processed by: cddbd v1.5.2PL0 Copyright (c) Steve Scherf et al.
# Submitted via: ExactAudioCopyFreeDBPlugin 1.0
#
DISCID=11113213
DTITLE=Various Artist - Black Power:  Music of a Revolution
DYEAR=2004
DGENRE=Rhythm and Blues
TTITLE0=Malcolm X - Speech:  "Standing and Fighting"
TTITLE1=Temptations - Message from a Black Man
TTITLE2=The Watts Prophets - Part-E, S
TTITLE3=H. Rap Brown - Speech:  "Violence is as American as Apple Pie"
TTITLE4=Gil Scott-Heron - The Revolution Will Not Be Televised
TTITLE5=The Last Poets - When the Revolution Comes
TTITLE6=Billy Paul - Am I Black Enough for You?
TTITLE7=Stokely Carmichael - Speech:  "Black Unity"
TTITLE8=Eddie Kendricks - My People . . . Hold On
TTITLE9=William DeVaughn - Be Thankful for What You Got
TTITLE10=Parliament - Chocolate City
TTITLE11=Curtis Mayfield - We're a Winner (live)
TTITLE12=Dyke and The Blazers - We Got More Soul
TTITLE13=Johnnie Taylor - I Am Somebody (Part 2)
TTITLE14=Charles Wright - Express Yourself
TTITLE15=The Staple Singers - Respect Yourself
TTITLE16=Nina Simone - To Be Young, Gifted and Black
TTITLE17=Kim Weston - Lift Ev'ry Voice and Sing
TTITLE18=McFadden and Whitehead - Ain't No Stopping Us Now
EXTD=
EXTT0=
EXTT1=
EXTT2=
EXTT3=
EXTT4=
EXTT5=
EXTT6=
EXTT7=
EXTT8=
EXTT9=
EXTT10=
EXTT11=
EXTT12=
EXTT13=
EXTT14=
EXTT15=
EXTT16=
EXTT17=
EXTT18=
PLAYORDER=
